<?xml version="1.0" standalone="no"?>
<!DOCTYPE svg PUBLIC "-//W3C//DTD SVG 20010904//EN"
 "http://www.w3.org/TR/2001/REC-SVG-20010904/DTD/svg10.dtd">
<svg version="1.0" xmlns="http://www.w3.org/2000/svg"
 width="200.000000pt" height="200.000000pt" viewBox="0 0 200.000000 200.000000"
 preserveAspectRatio="xMidYMid meet">
<metadata>
Created by potrace 1.11, written by Peter Selinger 2001-2013
</metadata>
<g transform="translate(0.000000,200.000000) scale(0.100000,-0.100000)"
fill="#000000" stroke="none">
<path d="M1088 1587 c-296 -172 -540 -318 -543 -326 -9 -24 13 -35 180 -90
l160 -52 54 -165 c54 -161 73 -204 91 -204 5 0 50 54 100 120 82 107 93 118
113 110 12 -5 67 -27 121 -49 55 -23 105 -41 112 -41 14 0 23 20 30 69 3 20
14 83 24 141 10 58 31 173 45 255 15 83 29 157 30 166 2 9 6 32 9 50 3 19 8
45 10 59 3 14 12 68 21 120 10 52 18 102 20 110 3 18 -13 40 -29 39 -6 0 -253
-141 -548 -312z m102 -131 l-285 -285 -127 42 c-70 23 -127 45 -125 49 2 7
806 477 817 478 3 0 -123 -128 -280 -284z m395 265 c-6 -10 -19 -77 -30 -149
-3 -24 -13 -80 -21 -125 -8 -45 -26 -143 -39 -217 -13 -74 -26 -146 -28 -160
-3 -14 -8 -44 -12 -67 -4 -24 -8 -43 -10 -43 -10 0 -315 132 -315 137 0 5 415
590 438 616 16 18 27 23 17 8z m-232 -208 c-204 -289 -277 -389 -288 -399 -8
-6 -22 -49 -32 -97 -17 -83 -31 -111 -34 -67 -1 11 -2 26 -3 33 -1 6 -4 14 -7
17 -3 3 -15 32 -26 65 l-21 60 227 228 c124 125 227 227 229 227 2 0 -18 -30
-45 -67z m-218 -485 c14 -6 25 -14 25 -17 0 -6 -72 -106 -89 -124 -4 -4 -1 28
7 73 9 44 19 80 23 80 5 0 20 -5 34 -12z"/>
<path d="M271 746 c-10 -11 -8 -18 8 -33 32 -29 89 -56 105 -50 29 11 17 37
-31 67 -54 34 -66 36 -82 16z"/>
<path d="M788 719 c-24 -12 -38 -27 -38 -39 0 -28 15 -32 55 -16 40 17 54 41
34 61 -12 11 -20 10 -51 -6z"/>
<path d="M478 664 c-5 -4 -8 -15 -8 -25 0 -20 25 -30 75 -31 59 -1 65 1 65 27
0 21 -5 25 -27 25 -16 0 -44 3 -63 6 -19 3 -38 2 -42 -2z"/>
<path d="M838 539 c-52 -19 -108 -186 -103 -304 1 -39 -2 -49 -23 -66 -32 -25
-42 -11 -31 44 13 65 11 87 -8 93 -10 3 -25 9 -33 13 -25 13 -83 -16 -108 -53
-62 -92 -4 -206 76 -150 20 14 24 14 38 0 21 -21 46 -20 77 4 25 20 25 20 50
0 14 -11 36 -20 50 -20 29 0 83 41 92 70 9 29 35 25 35 -5 0 -29 32 -65 58
-65 10 0 27 7 39 15 19 13 24 13 51 -2 28 -16 31 -16 55 0 22 14 27 14 37 2
18 -22 38 -18 45 8 20 69 89 172 72 108 -7 -29 20 -61 52 -61 19 0 32 -8 40
-24 24 -44 84 -58 144 -32 28 11 36 11 52 0 26 -19 48 -18 75 4 23 18 24 18
42 0 11 -11 27 -18 36 -16 23 4 28 39 7 51 -14 7 -16 18 -10 61 12 89 13 87
-27 100 -29 10 -42 10 -65 1 -38 -16 -71 -58 -79 -101 -7 -38 -43 -64 -88 -64
-36 0 -41 16 -7 28 40 14 71 51 71 83 0 63 -79 81 -131 30 -16 -16 -29 -37
-29 -45 0 -9 -6 -16 -14 -16 -11 0 -13 10 -9 40 4 31 2 41 -11 46 -28 11 -60
-5 -90 -44 l-28 -37 7 43 c6 37 5 42 -13 42 -29 0 -42 -21 -49 -78 -6 -52 -35
-98 -54 -86 -9 5 -6 74 6 114 6 21 -5 33 -41 46 -41 15 -83 -2 -113 -45 -29
-40 -52 -39 -71 2 -8 17 -24 36 -35 41 -20 9 -20 10 7 64 33 65 37 130 10 155
-10 10 -20 17 -23 16 -2 0 -16 -5 -31 -10z m23 -56 c3 -42 -5 -71 -32 -123
l-30 -55 6 48 c13 98 52 190 56 130z m-236 -257 c-15 -64 -21 -76 -40 -76 -34
0 -20 88 18 115 33 23 35 19 22 -39z m234 -20 c9 -10 7 -19 -6 -35 -35 -43
-70 -1 -52 61 13 46 33 54 40 18 4 -17 12 -36 18 -44z m217 48 c-4 -15 -10
-39 -13 -55 -10 -54 -53 -64 -53 -13 0 30 17 64 39 81 25 19 34 15 27 -13z
m424 1 c0 -13 -37 -45 -52 -45 -15 0 -8 30 12 50 21 21 40 19 40 -5z m194 3
c-2 -13 -7 -36 -10 -53 -6 -34 -21 -55 -40 -55 -31 0 -5 110 28 123 23 10 27
7 22 -15z"/>
<path d="M395 502 c-125 -12 -185 -46 -185 -105 0 -46 23 -76 47 -60 10 6 16
17 14 25 -6 21 -3 50 7 60 5 5 26 11 47 15 33 5 37 4 31 -13 -3 -10 -6 -38 -8
-61 -2 -37 -5 -42 -30 -47 -37 -7 -39 -43 -2 -52 22 -6 24 -10 19 -38 -16 -75
-64 -98 -118 -56 -34 27 -47 25 -47 -5 0 -59 128 -86 181 -39 26 23 49 74 49
109 0 25 13 30 62 26 27 -3 58 18 58 39 0 18 -7 20 -56 20 -47 0 -55 3 -50 16
3 9 6 37 6 64 l0 47 90 -4 c75 -3 91 -1 96 12 10 26 -13 41 -68 44 -29 1 -66
3 -83 4 -16 1 -43 1 -60 -1z"/>
</g>
</svg>
